<?xml version="1.0" encoding="UTF-8"?>
<svg xmlns="http://www.w3.org/2000/svg" xmlns:xlink="http://www.w3.org/1999/xlink" width="21pt" height="21pt" viewBox="0 0 21 21" version="1.1">
<g id="surface1">
<path style=" stroke:none;fill-rule:evenodd;fill:rgb(57.254902%,57.254902%,57.254902%);fill-opacity:1;" d="M 12.75 13.40625 C 11.835938 14.054688 10.722656 14.4375 9.515625 14.4375 C 6.433594 14.4375 3.9375 11.941406 3.9375 8.859375 C 3.9375 5.777344 6.433594 3.28125 9.515625 3.28125 C 12.597656 3.28125 15.09375 5.777344 15.09375 8.859375 C 15.09375 10.398438 14.46875 11.792969 13.460938 12.804688 L 17.394531 16.738281 C 17.578125 16.921875 17.570312 17.210938 17.390625 17.390625 C 17.207031 17.574219 16.917969 17.574219 16.738281 17.394531 Z M 9.515625 13.78125 C 12.234375 13.78125 14.4375 11.578125 14.4375 8.859375 C 14.4375 6.140625 12.234375 3.9375 9.515625 3.9375 C 6.796875 3.9375 4.59375 6.140625 4.59375 8.859375 C 4.59375 11.578125 6.796875 13.78125 9.515625 13.78125 Z M 9.515625 13.78125 "/>
</g>
</svg>
