<svg width="23" height="23" viewBox="0 0 23 23" fill="none" xmlns="http://www.w3.org/2000/svg">
<path fill-rule="evenodd" clip-rule="evenodd" d="M14.913 16.3449C13.3662 17.3917 11.4822 18.0097 9.4396 18.0097C4.22402 18.0097 0 13.9802 0 9.00483C0 4.02947 4.22402 0 9.4396 0C14.6552 0 18.8792 4.02947 18.8792 9.00483C18.8792 11.4894 17.8215 13.7406 16.1161 15.3738L22.7727 21.7238C23.0834 22.0202 23.0702 22.4869 22.7661 22.7769C22.4554 23.0733 21.9662 23.0733 21.6622 22.7832L14.913 16.3449ZM9.4396 16.9503C14.0404 16.9503 17.7687 13.3937 17.7687 9.00483C17.7687 4.61592 14.0404 1.05939 9.4396 1.05939C4.83879 1.05939 1.11054 4.61592 1.11054 9.00483C1.11054 13.3937 4.83879 16.9503 9.4396 16.9503Z" fill="#929292"/>
</svg>
